<?xml version="1.0" encoding="UTF-8"?>
<svg xmlns="http://www.w3.org/2000/svg" width="165" height="63" viewBox="0 0 165 63" fill="none">
  <g id="Logo">
    <g id="Group">
      <path id="Vector" d="M10.2202 43.2574C10.2202 47.3211 9.3031 50.2043 4.58568 50.2043C3.5368 50.2043 2.22443 50.0726 1.11475 49.6165L0 54.4657C1.37824 54.8609 2.94902 55.1852 4.91503 55.1852C12.845 55.1852 16.0575 50.7313 16.0575 44.3063V0H10.2253V43.2574H10.2202Z" fill="#564A44"></path>
      <path id="Vector_2" d="M73.9132 11.4059C69.9811 11.4059 66.5051 13.2402 63.166 15.9916L62.4464 12.1913H57.5973V34.537C57.5973 36.5385 55.2715 38.3879 52.966 38.3879C50.6605 38.3879 48.5678 36.5689 48.2891 34.233C48.2688 34.0505 48.2891 24.337 48.2891 24.337V22.219C48.2891 14.7451 43.8301 11.4059 36.8173 11.4059C33.1488 11.4059 29.2167 12.3231 25.609 14.4867L27.6409 18.4846C29.8704 17.1722 32.5559 16.0575 36.0927 16.0575C39.8271 16.0575 42.5177 17.9576 42.5177 22.3507V23.9874L36.7514 24.185C33.6048 24.3168 31.1169 24.7069 28.9533 25.7558C25.8066 27.2658 23.7089 30.0172 23.7089 34.1468C23.7089 40.1107 27.9702 43.7793 33.6707 43.8451C39.2394 43.911 42.5836 42.5835 44.9398 40.4148C45.9228 41.5802 47.1389 42.5379 48.5323 43.1915C49.87 43.8147 51.3597 44.1745 52.9305 44.1745C54.6077 44.1745 56.1836 43.7691 57.5871 43.0648C60.7844 41.4687 63.2116 38.2714 63.3534 34.5573V20.709C66.1048 18.3478 69.1197 16.5135 72.2664 16.5135C76.5278 16.5135 77.5766 19.9236 77.5766 24.3117V43.1864H83.3429V22.4115C83.3429 14.284 78.8181 11.4009 73.903 11.4009L73.9132 11.4059ZM42.5177 35.5859C41.1395 36.9641 38.5857 39.1277 34.978 39.1277C31.6996 39.1277 29.6018 37.03 29.6018 33.8175C29.6018 31.9173 30.3872 30.3415 32.029 29.4243C33.3413 28.7707 34.978 28.3755 37.471 28.3096L42.5177 28.112V35.5808V35.5859Z" fill="#564A44"></path>
      <path id="Vector_3" d="M117.758 12.1913H111.992V34.9322C110.421 36.8982 107.34 38.7984 104.062 38.7984C101.508 38.7984 99.8664 37.7495 99.081 35.5859C98.6199 34.3394 98.4932 32.9662 98.4932 31.0002V12.1913H92.7269V32.0491C92.7269 34.6029 92.9904 36.2446 93.5782 37.9471C95.2149 42.5328 99.2127 43.8452 102.228 43.8452C106.291 43.8452 109.702 42.0768 112.321 39.7155L113.304 43.1915H118.417C117.956 41.6207 117.763 38.7984 117.763 33.6249V12.1913H117.758Z" fill="#E4032E"></path>
      <path id="Vector_4" d="M132.503 19.9236C132.503 16.9746 135.057 16.1233 137.945 16.1233C141.026 16.1233 143.58 16.9087 145.809 17.8917V12.9108C143.58 12.0596 140.762 11.4009 137.682 11.4009C130.669 11.4009 126.803 15.267 126.803 20.182C126.803 30.4732 141.35 28.3755 141.35 34.6687C141.35 37.8812 138.533 39.1277 135.057 39.1277C131.581 39.1277 129.027 37.9471 127.061 36.7665L125.227 41.0937C127.391 42.472 130.927 43.8451 135.255 43.8451C141.68 43.8451 147.051 40.962 147.051 34.6029C147.051 23.9874 132.503 26.2118 132.503 19.9236Z" fill="#E4032E"></path>
      <g id="Group_2">
        <g id="Group_3">
          <path id="Vector_5" d="M137.849 62.35C137.378 62.35 136.922 62.2588 136.496 62.0764C135.234 61.5393 134.403 60.3131 134.383 58.9399C134.383 58.9399 134.373 57.131 134.368 56.2138C134.368 55.5247 134.251 54.9471 134.028 54.5012C133.79 54.0299 133.339 53.7918 132.686 53.7918C132.321 53.7918 131.91 53.8728 131.47 54.0401C130.608 54.3694 129.838 55.0535 129.838 55.0535C129.838 55.0535 129.848 59.2388 129.838 59.3807C129.747 60.5563 128.845 61.6305 127.71 62.0865C127.294 62.2537 126.854 62.3449 126.408 62.3399C124.811 62.3297 123.899 61.2707 123.899 61.2707C123.899 61.2707 122.962 62.3399 121.391 62.3399C120.93 62.3399 120.474 62.2487 120.048 62.0713C118.756 61.5291 117.92 60.2725 117.92 58.874V55.9149C117.92 55.2055 117.814 54.6633 117.606 54.2985C117.388 53.9134 116.952 53.7208 116.314 53.7208C115.802 53.7208 115.326 53.8475 114.87 54.0502C114.226 54.339 113.517 54.9724 113.517 54.9724V62.0764H111.551V55.9554C111.551 55.2612 111.445 54.714 111.232 54.3289C111.004 53.9235 110.568 53.7158 109.935 53.7158C109.413 53.7158 108.952 53.8272 108.506 54.0451C107.888 54.3542 107.153 54.9876 107.153 54.9876C107.153 54.9876 107.173 58.7473 107.173 58.8639C107.173 58.9703 107.168 59.0818 107.158 59.1983C107.036 60.4752 106.22 61.5747 105.03 62.0663C104.609 62.2385 104.163 62.3297 103.707 62.3297C103.251 62.3297 102.826 62.2335 102.405 62.0764C101.442 61.7166 100.809 60.7742 100.809 60.7742C100.809 60.7742 99.8715 62.2791 97.6167 62.2791C96.7451 62.2791 96.0053 62.0004 95.4125 61.4531C95.3517 61.3923 95.1743 61.1998 95.1743 61.1998L95.0882 61.2758C94.3079 61.9548 93.3147 62.3297 92.2811 62.3297C91.9517 62.3297 91.6223 62.2892 91.293 62.2132C90.5025 62.0257 89.783 61.6153 89.2104 61.0275L89.1243 60.9414L89.0432 61.0326C88.8304 61.2657 88.6074 61.4633 88.3693 61.6254C87.7055 62.0865 86.9302 62.3297 86.1246 62.3297C85.4861 62.3297 84.8781 62.1828 84.3106 61.8838C82.9932 61.1998 82.1723 59.857 82.1723 58.3774V55.1903C81.7619 55.9554 80.0593 57.1309 77.8602 56.5685L75.2963 62.1524H73.31L68.7852 52.2919H70.8626L74.2981 59.6543L77.7336 52.2919H79.8111C79.8111 52.2919 78.747 54.562 78.524 55.094C79.4057 55.2612 80.8853 55.1852 82.1166 52.2919H84.1282V58.1494C84.1282 58.2964 84.1434 58.4484 84.1687 58.5953C84.2802 59.1527 84.6855 60.2928 86.1094 60.2928C87.7359 60.2928 87.9943 58.7321 87.9943 58.3825V52.0031H86.2614V50.5235H87.9943V48.3599L89.9603 47.7518V50.5185H93.0158L92.4128 51.998H89.9654V58.2001C89.9654 58.4687 90.011 58.7321 90.1174 58.9754C90.4772 59.8216 91.3132 60.3941 92.2659 60.3941C94.1255 60.3941 94.5156 59.097 94.5916 58.6055C94.6322 58.342 94.7031 58.0836 94.8196 57.8505C94.997 57.4958 95.2503 57.1816 95.5746 56.9181C95.7925 56.7408 96.056 56.5888 96.3499 56.457C96.9579 56.1885 97.6927 56.0567 98.549 56.0567L100.545 55.9909V55.5804C100.545 54.8863 100.348 54.3694 99.9627 54.0401C99.5827 53.7208 99.0608 53.5587 98.4122 53.5587C97.0846 53.5587 96.1725 54.1009 95.8432 54.3137L95.2098 53.1026C95.7874 52.7176 96.36 52.4439 96.9123 52.2869C97.49 52.1196 98.1436 52.0386 98.8479 52.0386C100.029 52.0386 100.946 52.3071 101.579 52.8341C102.197 53.3509 102.511 54.2275 102.522 55.4335V59.8317C102.522 59.8317 103.084 60.5917 104.123 60.3283C104.513 60.232 104.807 59.9432 104.989 59.6442C105.126 59.4263 105.187 59.1679 105.187 58.9095V52.2869H106.823L107.097 53.4979L107.239 53.3864C108.384 52.4895 109.529 52.0588 110.639 52.0386C112.696 51.993 113.152 53.6803 113.152 53.6803C113.152 53.6803 114.809 52.0335 116.795 52.0386C117.692 52.0386 118.442 52.297 119.025 52.8037C119.603 53.3053 119.896 54.1414 119.896 55.2865V58.9399C119.896 59.1274 119.927 59.3098 120.003 59.4821C120.17 59.8621 120.489 60.1712 120.89 60.3029C121.66 60.5613 122.42 60.2016 122.754 59.5682C122.856 59.3757 122.901 59.1527 122.901 58.9298V52.2869H124.872V58.8588C124.872 59.0412 125.009 60.384 126.418 60.384C127.122 60.384 127.517 59.9685 127.715 59.6442C127.821 59.4669 127.877 59.1375 127.877 58.9298V52.2869H129.509L129.782 53.4928C129.782 53.4928 130.791 52.7226 131.637 52.3882C132.189 52.1652 132.782 52.0386 133.41 52.0386C134.206 52.0386 134.9 52.3223 135.478 52.8848C136.05 53.4472 136.344 54.3238 136.344 55.4994V58.874C136.344 59.097 136.385 59.3148 136.471 59.5175C136.628 59.8722 136.977 60.3131 137.743 60.3789C138.705 60.4651 139.111 59.7303 139.111 59.7303C139.111 59.7303 138.822 59.1324 138.67 58.342C138.594 57.9467 138.563 57.5312 138.563 57.1005C138.563 56.1074 138.751 55.2156 139.126 54.4454C139.293 54.1009 139.496 53.7766 139.734 53.4827C140.504 52.5199 141.543 52.0335 142.83 52.0335C144.117 52.0335 145.14 52.4946 145.895 53.3965C147.253 55.0231 147.03 57.5768 147.03 57.5768H140.58C140.58 57.5768 140.408 60.5968 143.701 60.688C144.537 60.7083 145.363 60.4701 146.159 60.0394L146.65 61.2707C146.199 61.5899 144.938 62.2689 143.301 62.274C141.31 62.2841 140.307 61.3163 140.307 61.3163C140.307 61.3163 139.379 62.3044 137.864 62.3247L137.849 62.35ZM98.7871 57.4755C98.0423 57.4755 97.4697 57.6123 97.0897 57.891C96.6944 58.1748 96.4968 58.5801 96.4968 59.097C96.4968 59.6138 96.659 59.9989 96.9833 60.3029C97.3025 60.6069 97.7687 60.759 98.3666 60.759C99.8005 60.759 100.556 59.8925 100.556 59.8925V57.4147L98.7871 57.4806V57.4755ZM142.774 53.5384C142.105 53.5384 141.563 53.7968 141.158 54.3035C140.763 54.8001 140.56 55.4031 140.56 56.0871V56.2037H144.958V56.0871C144.958 55.4284 144.771 54.8356 144.396 54.3238C144.016 53.8019 143.468 53.5333 142.769 53.5333L142.774 53.5384Z" fill="#564A44"></path>
          <path id="Vector_6" d="M83.1451 50.3664C83.8531 50.3664 84.4271 49.7925 84.4271 49.0845C84.4271 48.3765 83.8531 47.8025 83.1451 47.8025C82.4371 47.8025 81.8632 48.3765 81.8632 49.0845C81.8632 49.7925 82.4371 50.3664 83.1451 50.3664Z" fill="#564A44"></path>
          <path id="Vector_7" d="M123.874 50.3563C124.582 50.3563 125.156 49.7823 125.156 49.0743C125.156 48.3663 124.582 47.7924 123.874 47.7924C123.166 47.7924 122.592 48.3663 122.592 49.0743C122.592 49.7823 123.166 50.3563 123.874 50.3563Z" fill="#564A44"></path>
        </g>
        <g id="Group_4">
          <path id="Vector_8" d="M163.813 48.2231C164.578 45.4311 163.336 43.8553 163.336 43.8553C160.554 39.6446 153.126 43.7995 153.02 43.8502C151.951 44.3569 152.346 44.8281 153.288 44.8281C153.466 44.8281 160.321 44.8281 161.005 44.8281C161.127 44.8281 161.223 44.9295 161.223 45.0511V47.3009C161.223 47.4022 161.142 47.4833 161.041 47.4833H156.298C156.197 47.4833 156.116 47.5643 156.116 47.6657C156.116 47.6657 156.116 53.4269 156.116 54.1414C156.116 56.0364 158.32 54.6987 159.252 54.0451C161.573 52.4186 163.098 50.8123 163.808 48.2281L163.813 48.2231Z" fill="#B0A6A1"></path>
          <path id="Vector_9" d="M153.045 55.1092C153.045 51.4153 153.035 49.1149 153.045 47.6708C153.045 47.6708 153.045 47.6606 153.045 47.6556C153.045 47.5542 152.964 47.4732 152.863 47.4732H152.848C152.848 47.4732 148.485 47.4732 148.363 47.4732C148.161 47.4732 148.13 47.311 148.13 47.2401V46.8246C148.13 46.5966 147.882 46.4547 147.689 46.5712C147.689 46.5712 145.399 47.9191 145.333 47.9596C144.451 48.4916 143.985 49.3074 145.141 49.9763C147.02 51.0657 149.655 52.5351 149.174 56.5736C149.042 57.6934 147.968 59.629 152.214 57.511C153.223 57.0093 153.05 56.4317 153.05 55.1041L153.045 55.1092Z" fill="#857973"></path>
        </g>
      </g>
    </g>
    <g id="Group_5">
      <path id="Vector_10" d="M26.374 5.8776C26.7034 6.09548 27.2253 6.33363 27.8536 6.33363C28.5883 6.33363 29.2318 6.03468 29.2318 5.22395C29.2318 3.5873 26.2271 3.78491 26.2271 1.74796C26.2271 0.78522 26.9618 0.0200958 28.2336 0.0200958C28.8569 0.0200958 29.4041 0.177174 29.7132 0.329186V1.04364C29.2876 0.805488 28.7707 0.668678 28.2539 0.668678C27.6408 0.668678 27.0226 0.937231 27.0226 1.67195C27.0226 3.21233 30.0274 3.05019 30.0274 5.17328C30.0274 6.31337 29.1457 6.99742 27.8435 6.99742C27.0682 6.99742 26.4551 6.75927 26.0548 6.48058L26.374 5.8776Z" fill="#E4032E"></path>
      <path id="Vector_11" d="M31.1421 3.51653C31.1421 1.4441 32.5507 0.0151978 34.4661 0.0151978C36.3814 0.0151978 37.7901 1.47451 37.7901 3.51653C37.7901 5.55855 36.3307 6.99252 34.4661 6.99252C32.6014 6.99252 31.1421 5.62442 31.1421 3.51653ZM36.9844 3.51653C36.9844 1.91027 36.0825 0.678981 34.4711 0.678981C32.951 0.678981 31.9579 1.8292 31.9579 3.51653C31.9579 5.20385 32.951 6.3338 34.4711 6.3338C35.9913 6.3338 36.9844 5.20385 36.9844 3.51653Z" fill="#E4032E"></path>
      <path id="Vector_12" d="M39.2391 0.0709076H40.0043V6.24257H42.5429V6.89622H39.2391V0.0709076Z" fill="#E4032E"></path>
      <path id="Vector_13" d="M43.7691 5.54838C43.6678 5.22916 43.6121 4.8542 43.6121 4.44883V0.0709076H44.3772V4.3779C44.3772 4.74272 44.4177 5.06195 44.514 5.3305C44.7521 5.97402 45.2994 6.34391 46.1506 6.34391C47.0019 6.34391 47.5492 5.96895 47.7873 5.3305C47.8886 5.06195 47.9241 4.74272 47.9241 4.34749V0.0709076H48.6892V4.44883C48.6892 4.87447 48.6386 5.24436 48.5119 5.56865C48.1825 6.50099 47.3617 6.99756 46.1506 6.99756C44.9396 6.99756 44.0985 6.49085 43.7691 5.54838Z" fill="#E4032E"></path>
      <path id="Vector_14" d="M51.6889 0.724556H49.733V0.0709076H54.6278L54.3795 0.724556H52.454V6.89622H51.6889V0.724556Z" fill="#E4032E"></path>
      <path id="Vector_15" d="M55.55 0.0709076H56.3152V6.89115H55.55V0.0709076Z" fill="#E4032E"></path>
      <path id="Vector_16" d="M57.7643 3.51653C57.7643 1.4441 59.1729 0.0151978 61.0883 0.0151978C63.0036 0.0151978 64.4122 1.47451 64.4122 3.51653C64.4122 5.55855 62.9529 6.99252 61.0883 6.99252C59.2236 6.99252 57.7643 5.62442 57.7643 3.51653ZM63.6015 3.51653C63.6015 1.91027 62.6996 0.678981 61.0883 0.678981C59.5681 0.678981 58.575 1.8292 58.575 3.51653C58.575 5.20385 59.5681 6.3338 61.0883 6.3338C62.6084 6.3338 63.6015 5.20385 63.6015 3.51653Z" fill="#E4032E"></path>
      <path id="Vector_17" d="M70.8475 6.89115L67.5742 2.56389C67.1587 2.02679 66.8496 1.59102 66.6114 1.25153H66.5912C66.6114 1.59102 66.6216 1.88491 66.6216 2.42202V6.89622H65.8564V0.0709076H66.5912L69.7378 4.23095C70.1736 4.8086 70.4928 5.26463 70.7309 5.60919H70.7512C70.7309 5.24943 70.7309 4.94541 70.7309 4.4083V0.0709076H71.4859V6.89115H70.8424H70.8475Z" fill="#E4032E"></path>
      <path id="Vector_18" d="M73.2493 5.87774C73.5786 6.09562 74.1005 6.33377 74.7289 6.33377C75.4636 6.33377 76.1071 6.03482 76.1071 5.22409C76.1071 3.58743 73.1023 3.78505 73.1023 1.7481C73.1023 0.785357 73.8371 0.0202332 75.1089 0.0202332C75.7321 0.0202332 76.2794 0.177312 76.5885 0.329323V1.04378C76.1628 0.805625 75.646 0.668815 75.1291 0.668815C74.516 0.668815 73.8979 0.937368 73.8979 1.67209C73.8979 3.21247 76.9026 3.05033 76.9026 5.17342C76.9026 6.3135 76.021 6.99755 74.7187 6.99755C73.9435 6.99755 73.3304 6.7594 72.9301 6.48072L73.2493 5.87774Z" fill="#E4032E"></path>
      <path id="Vector_19" d="M80.6471 0.0709076H82.3547C83.0185 0.0709076 83.4846 0.182383 83.8343 0.379997C84.5082 0.719489 84.7767 1.32247 84.7767 1.98625C84.7767 2.90845 84.2498 3.50636 83.4289 3.76478V3.78505C83.6367 3.89653 83.9052 4.27149 84.27 4.8846L85.4405 6.89115H84.189L83.1452 5.07715C82.8158 4.48937 82.5675 4.19548 82.38 4.15495H81.7365V6.88608H80.6471V0.0709076ZM82.3142 3.25808C82.6536 3.25808 82.9019 3.19727 83.13 3.0706C83.439 2.88312 83.6468 2.55376 83.6468 2.09773C83.6468 1.71263 83.4998 1.38327 83.2009 1.19579C83.0134 1.04885 82.7449 0.957641 82.3192 0.957641H81.7314V3.25808H82.3091H82.3142Z" fill="#E4032E"></path>
      <path id="Vector_20" d="M86.5806 0.0709076H87.6649V2.94899H91.0801V0.0709076H92.1695V6.89115H91.0801V3.86612H87.6649V6.89115H86.5806V0.0709076Z" fill="#E4032E"></path>
    </g>
  </g>
</svg>
